<?xml version="1.0" encoding="utf-8"?>
<!-- Svg Vector Icons : http://www.onlinewebfonts.com/icon -->
<!DOCTYPE svg PUBLIC "-//W3C//DTD SVG 1.1//EN" "http://www.w3.org/Graphics/SVG/1.1/DTD/svg11.dtd">
<svg version="1.1" xmlns="http://www.w3.org/2000/svg" xmlns:xlink="http://www.w3.org/1999/xlink" x="0px" y="0px" viewBox="0 0 1000 1000" enable-background="new 0 0 1000 1000" xml:space="preserve">
<metadata> Svg Vector Icons : http://www.onlinewebfonts.com/icon </metadata>
<g><g transform="translate(0.000000,511.000000) scale(0.100000,-0.100000)"><path d="M4327,4974.9C2847.9,4768.2,1577.7,3935,809.1,2660.4c-338-559.8-581.3-1257.3-673.9-1924.7c-47.4-346.6-47.4-973.1,2.2-1306.8C453.9-2788.6,2159-4461.5,4398.1-4756.4c327.3-40.9,927.9-43.1,1257.3,0c2066.8,269.1,3735.4,1832.2,4148.7,3890.4c81.8,402.6,105.5,704,92.6,1154c-28,1031.3-342.3,1931.2-964.5,2773C8266.9,3963,7201.2,4643.3,6058,4897.4C5569.3,5007.2,4802.8,5039.4,4327,4974.9z M5414.3,4662.7c2144.3-202.4,3834.4-1851.5,4125-4026c60.3-447.8,23.7-1104.5-88.3-1582.4C9102.3-2446.3,7935.4-3716.6,6447.7-4216c-514.6-172.2-899.9-234.7-1464-234.7c-555.4,0-897.8,51.7-1399.4,215.3c-1052.8,340.2-1976.4,1095.8-2534,2073.3C419.4-1053.4,266.6,186.7,611,1385.9C1073.9,2989.8,2454,4251.5,4116,4587.3C4576.8,4679.9,4977.2,4703.6,5414.3,4662.7z"/><path d="M4184.9,2337.5c-25.8-10.8-56-32.3-64.6-47.4c-10.8-15.1-23.7-211-30.1-437.1l-10.8-409.1l-684.6-10.8l-686.8-10.8l-51.7-60.3l-51.7-62.4l4.3-1440.3l6.5-1438.2l49.5-49.5l49.5-49.5h2366.1h2368.2l53.8,53.8l53.8,53.8v1436c2.1,977.4-6.5,1451.1-21.5,1481.2c-12.9,23.7-40.9,51.7-64.6,64.6s-295,21.5-708.3,21.5h-669.6v400.4v400.4l-62.4,62.4l-62.4,62.4l-869.8-2.2C4619.8,2356.9,4208.6,2348.3,4184.9,2337.5z M5726.5,1713.2v-279.9l-639.4,4.3l-641.6,6.5l-6.5,275.6l-6.5,273.4h648.1h645.9V1713.2z M7207.7-121.2l-6.5-1190.6l-2114.2-6.5l-2116.3-4.3v1194.9v1194.9h2120.7H7212L7207.7-121.2z"/><path d="M4768.4,824c-310-118.4-544.7-366-645.9-680.3c-28-86.1-34.4-163.6-28-314.3c6.5-178.7,17.2-217.4,90.4-366c200.2-406.9,630.8-645.9,1035.6-577c432.7,73.2,783.7,424.1,856.9,856.9c68.9,404.7-170.1,835.3-577,1035.6c-157.2,77.5-183,84-385.4,88.3C4932,873.5,4878.2,867.1,4768.4,824z M5394.9,453.7c206.7-101.2,312.2-275.6,327.2-538.2c10.8-230.4-40.9-376.8-185.1-510.3c-137.8-129.2-279.9-176.5-497.3-163.6c-258.4,15.1-430.6,122.7-533.9,335.8c-49.5,103.4-60.3,150.7-60.3,295c0,198.1,51.7,338,167.9,458.6C4802.8,529,5134.4,580.7,5394.9,453.7z"/></g></g>
</svg>